<svg version="1.2" xmlns="http://www.w3.org/2000/svg" viewBox="0 0 1024 1024" width="1200" height="1200">
	<style>
		.s0 { opacity: .26;fill: #abaa85 } 
		.s1 { opacity: 1;fill: #a85434 } 
		.s2 { opacity: 1;fill: #7eaa34 } 
		.s3 { opacity: .73;fill: #7eaa36 } 
	</style>
	<g id="Background">
		<path id="Path 0" class="s0" d="m211.47 543c0 29.98 0.12 42.13 0.28 27 0.15-15.13 0.15-39.65 0-54.5-0.16-14.85-0.28-2.48-0.28 27.5z"/>
		<path id="Path 1" class="s1" d="m579.53 521.27c-1.08 0.66-2.31 1.66-2.73 2.22-0.42 0.56-0.78 15.3-0.78 32.76l-0.02 31.75c-4.52 7.22-6.02 8.32-10.25 9.63-2.89 0.9-5.83 2.14-6.54 2.75-0.77 0.66-1.28 3.26-1.25 6.37 0.02 3.28 0.6 5.81 1.54 6.75 0.83 0.83 2.51 1.77 3.75 2.1 1.24 0.33 4.73 0.05 7.75-0.63 3.03-0.68 6.85-1.92 8.5-2.75 1.65-0.84 4.5-2.69 6.34-4.12 1.83-1.43 4.53-5.08 6-8.1l2.66-5.5c0.55-55.04 0.3-66.91-0.42-68.75-0.65-1.64-2.49-3.35-4.58-4.25-1.92-0.83-4.51-1.49-5.75-1.47-1.24 0.02-3.14 0.57-4.22 1.24z"/>
		<path id="Path 2" fill-rule="evenodd" class="s2" d="m271.76 411.72c0.96 0.34 7.59 4.55 14.74 9.36 7.15 4.81 16.15 11.39 20 14.62 3.85 3.24 9.27 9.01 12.03 12.84 3.05 4.21 6.34 10.51 8.35 15.96 1.82 4.95 3.55 11.47 4.38 20l-3.88 0.74c-2.13 0.41-4.67 0.74-5.63 0.75-1.15 0.01-1.76-0.77-1.77-2.24 0-1.24-0.96-5.4-2.11-9.25-1.15-3.85-3.4-9.59-4.98-12.75-1.59-3.16-4.58-7.62-6.64-9.9-2.06-2.28-7.12-6.7-11.25-9.82-4.12-3.13-10.99-8.01-15.25-10.86-4.26-2.84-8.2-5.17-8.75-5.17-0.55 0-6.48 3.71-13.17 8.25-6.69 4.54-14.19 10.27-16.68 12.75-2.48 2.47-6.12 6.97-8.1 10-1.97 3.02-4.89 8.65-9.39 19.5l-0.33 60.75c-0.31 57.07-0.44 60.75-2.08 60.74-0.96-0.01-3.45-0.34-9.29-1.49l0.05-57.5c0.03-31.63 0.48-60.88 1.01-65 0.67-5.25 2.07-9.75 4.68-15 2.05-4.13 5.76-10.03 8.26-13.13 2.5-3.1 6.56-7.41 9.04-9.59 2.48-2.17 7.88-6.43 12-9.47 4.13-3.04 10.99-7.81 15.26-10.62 5.05-3.31 8.37-4.87 9.5-4.47zm539.24 105.55c6.99 0.24 9.3 0.75 13 2.88 2.48 1.43 5.96 4.23 7.75 6.22 1.79 2 4 5.09 4.93 6.88 1.18 2.3 1.96 7.79 2.66 18.75 0.54 8.52 0.69 17.19 0.32 19.25-0.36 2.06-1.33 4.42-2.16 5.25-0.83 0.83-2.74 1.79-4.25 2.15-1.9 0.44-3.99-0.03-10.75-3.72l-4.5 2.01c-3.05 1.37-6.68 2.02-11.25 2.04-4.92 0.01-8.03-0.58-11.5-2.21-2.61-1.22-6.56-4.03-8.77-6.25-2.22-2.21-5.13-6.27-6.47-9.02-1.94-3.96-2.45-6.56-2.44-12.5 0.01-6.06 0.54-8.65 2.78-13.5 1.52-3.3 3.98-7.27 5.46-8.82 1.48-1.55 4.27-3.79 6.19-4.97 1.92-1.18 5.08-2.73 7-3.44 2.15-0.8 6.78-1.18 12-1zm-15.19 26.23c-1.8 4.66-1.83 5.29-0.37 9.25 1.06 2.89 2.92 5.22 5.81 7.28 2.34 1.66 5.49 3.01 7 3 1.51-0.02 4.44-1.18 6.5-2.58 2.06-1.4 4.53-3.54 5.48-4.75 1.07-1.37 1.73-3.99 1.75-6.95 0.01-2.74-0.72-6.04-1.73-7.79-0.96-1.67-3.55-3.91-5.75-4.98-2.2-1.08-5.13-1.95-6.5-1.95-1.37 0-4.25 1.01-6.38 2.24-2.95 1.69-4.35 3.44-5.81 7.23z"/>
		<path id="Path 3" class="s0" d="m707.37 524c0 5.77 0.17 8.02 0.37 5 0.2-3.02 0.2-7.75 0-10.5-0.2-2.75-0.37-0.27-0.37 5.5z"/>
		<path id="Path 4" class="s3" d="m328.16 542.64c-0.83 0.26-0.77 0.85 0.24 2.11 0.76 0.96 1.61 2.65 1.88 3.75 0.3 1.24 0.57 0.59 0.71-1.69 0.12-2.03-0.21-3.88-0.73-4.11-0.51-0.23-1.46-0.26-2.1-0.06z"/>
		<path id="Path 5" fill-rule="evenodd" class="s1" d="m516.87 489.97c3.47-0.03 5.13 0.5 6.63 2.1 1.93 2.06 2.01 3.74 2.31 45.78 0.29 41.03 0.2 43.76-1.5 45.41-1 0.97-3.61 2.05-5.81 2.39-2.2 0.34-5.24 0.33-6.75-0.02-1.89-0.43-3.22-1.72-4.25-4.13-1.18-2.76-1.49-8.09-1.47-25.25 0.01-11.96 0.46-30.97 0.99-42.25 0.9-19.07 1.12-20.61 3.1-22.25 1.33-1.09 3.86-1.76 6.75-1.78zm-126.37 29.74c2.75 0.26 6.57 0.92 8.5 1.47 1.93 0.55 5.75 2.51 8.5 4.35 2.75 1.84 5.94 4.61 7.1 6.16 1.15 1.54 2.89 4.39 3.86 6.31 1.45 2.88 1.85 7.05 2.26 23.5 0.42 16.92 0.26 20.31-1.03 22-1.23 1.61-2.7 2-7.5 2-4.35 0-6.48-0.48-7.84-1.77-1.77-1.69-2.08-1.65-7.31 1-4.44 2.25-6.77 2.77-12.5 2.76-5.42-0.01-8.31-0.6-12.54-2.56-3.02-1.4-7.45-4.32-9.83-6.49-2.39-2.17-5.45-6.19-6.82-8.94-2.27-4.58-2.45-5.92-2.14-16 0.31-9.99 0.62-11.49 3.32-16.38 1.63-2.95 4.66-6.89 6.72-8.75 2.06-1.85 5.66-4.33 8-5.51 2.34-1.18 6.5-2.48 9.25-2.88 2.75-0.4 7.25-0.52 10-0.27zm-16.32 26.29c-1.89 2.8-2.28 4.5-1.98 8.5 0.25 3.25 1.24 6.2 2.84 8.43 1.35 1.89 3.92 4.03 5.71 4.75 1.79 0.73 5.16 1.33 7.5 1.35 2.96 0.03 4.86-0.58 6.25-1.98 1.1-1.1 2.39-1.91 2.86-1.78 0.47 0.13 1.65-1.35 2.63-3.27 1.39-2.75 1.64-4.82 1.14-9.64-0.41-4.03-1.32-6.91-2.63-8.39-1.1-1.23-3.46-2.86-5.25-3.61-1.79-0.75-4.71-1.36-6.5-1.36-1.79 0-4.82 0.79-6.73 1.75-1.91 0.96-4.54 3.33-5.84 5.25zm63.07-26.96c1.51-0.02 3.91 0.52 5.32 1.21 1.69 0.82 3.68 3.64 5.83 8.25 1.79 3.85 5.7 12.75 8.68 19.77 2.98 7.03 5.71 12.43 6.07 12 0.36-0.42 2.32-4.82 4.35-9.77 2.03-4.95 5.93-13.5 8.66-19 2.73-5.5 5.5-10.33 6.15-10.73 0.66-0.41 3.55-0.75 6.44-0.75 3.93-0.02 5.75 0.48 7.25 1.98 1.1 1.1 2 3.12 2 4.5 0 1.37-4.46 12.06-9.92 23.75-5.45 11.69-11.08 23.84-12.5 27-2.03 4.52-3.33 6.07-6.08 7.25-1.93 0.83-5.52 1.5-8 1.5-3.51 0-5.16-0.6-7.52-2.75-1.93-1.76-5.45-8.13-9.81-17.75-3.73-8.25-8.95-20.17-11.59-26.5-3.47-8.33-4.63-12.26-4.19-14.25 0.35-1.59 1.77-3.37 3.36-4.21 1.51-0.8 3.99-1.48 5.5-1.5zm113.25 0.97c1.65 0 4.46 0.9 9.5 3.99v29.5c0 29.48 0 29.5-2.25 31.01-1.24 0.83-3.94 1.5-6 1.5-2.06-0.01-4.99-0.63-6.5-1.39-2.3-1.16-2.87-2.26-3.49-6.75-0.41-2.95-0.81-16.29-1.03-53.9l3.39-1.98c1.86-1.09 4.73-1.98 6.38-1.98zm87.5 0.03c4.26-0.03 9.88 0.65 13 1.59 4.11 1.23 6.79 2.94 10.59 6.76 2.8 2.81 6.17 7.13 7.5 9.61 2.32 4.33 2.41 5.26 2.41 24.71 0 19.03-0.12 20.29-2 21.71-1.1 0.84-3.58 1.53-5.5 1.54-1.92 0.02-5.08-0.91-10.5-4.14l-4 2.26c-2.6 1.48-6.28 2.43-10.5 2.72-4.44 0.32-8.4-0.1-12.5-1.3-4.72-1.38-7.08-2.86-11.05-6.88-2.78-2.82-6.15-7.37-7.49-10.12-1.87-3.82-2.53-7-2.79-13.5-0.28-6.95 0.07-9.59 1.92-14.5 1.55-4.12 3.84-7.59 7.33-11.08 3.27-3.27 7.04-5.83 10.58-7.2 3.75-1.44 7.88-2.14 13-2.18zm-11.2 25.17c-1.2 1.56-1.76 4.12-1.78 8.04-0.01 3.16 0.65 7.1 1.48 8.75 0.85 1.7 3.02 3.65 5 4.5 1.92 0.83 5.69 1.5 8.36 1.5 3.97 0 5.38-0.51 7.64-2.75 1.53-1.51 3.39-4.21 4.14-6 0.75-1.79 1.36-4.49 1.36-6 0.01-1.51-0.83-4.33-1.85-6.25-1.02-1.92-3.61-4.51-5.75-5.73-2.15-1.23-5.48-2.24-7.4-2.25-1.92 0-4.84 0.87-6.47 1.95-1.64 1.08-3.76 2.98-4.73 4.24z"/>
		<path id="Path 6" fill-rule="evenodd" class="s2" d="m550.92 483c1.7 0 4.43 0.68 6.08 1.5 1.65 0.82 3.68 2.51 4.51 3.75 0.83 1.24 1.5 3.71 1.5 5.5-0.01 1.79-0.47 4.26-1.03 5.5-0.56 1.24-2.36 3.04-4 4-1.64 0.96-4.1 1.75-5.48 1.75-1.37 0-3.85-0.68-5.5-1.5-1.65-0.82-3.45-2.4-4-3.5-0.55-1.1-0.97-4.06-0.92-6.58 0.06-3.62 0.67-5.19 2.92-7.5 1.93-1.98 3.84-2.92 5.92-2.92zm-286.92 1.21c1.86 0.22 2.65 1.05 3.13 3.29 0.35 1.65 0.69 27.3 0.9 111l-4.76-0.79c-2.63-0.43-4.99-1.03-5.27-1.33-0.27-0.3-0.5-25.07-0.5-55.04 0-53.35 0.04-54.53 2-55.96 1.1-0.81 3.12-1.33 4.5-1.17zm321.08 0.79c3.91 0 5.43 0.51 7.42 2.5 1.38 1.38 2.77 3.74 3.11 5.25 0.33 1.51 0.33 3.76 0 5-0.34 1.24-1.71 3.38-3.06 4.75-1.94 1.97-3.47 2.5-7.25 2.51-2.64 0-5.81-0.67-7.05-1.5-1.24-0.83-2.7-3.08-3.25-5.01-0.55-1.93-0.69-4.51-0.3-5.75 0.38-1.24 1.77-3.49 3.08-5 2-2.3 3.18-2.75 7.3-2.75zm132.67 7.06c1.24-0.03 3.49 1.03 5 2.35 2.68 2.36 2.76 2.71 3.25 26.59l3.25-1.74c2.31-1.23 5.58-1.73 11.25-1.74 5.93 0 9.04 0.51 12 1.96 2.2 1.08 6.04 4 8.54 6.49 2.5 2.49 5.53 6.55 6.74 9.03 1.76 3.62 2.19 6.26 2.18 13.5 0 6.86-0.48 10.01-1.98 13.25-1.09 2.34-4 6.27-6.48 8.75-2.47 2.48-6.41 5.39-8.75 6.48-3.13 1.46-6.42 1.98-12.5 2-5.61 0.01-9.29-0.5-11.5-1.59-2.99-1.48-3.51-1.48-6.5 0-1.79 0.89-4.26 1.63-5.5 1.64-1.24 0.02-3.49-0.88-7.75-4.03v-38.5c0-28.24 0.32-39.05 1.21-40.56 0.66-1.13 2.12-2.45 3.25-2.93 1.12-0.49 3.05-0.91 4.29-0.95zm11.24 47.61c-1.15 1.56-2.48 4.41-2.97 6.33-0.55 2.21-0.48 4.6 0.19 6.5 0.59 1.65 2.02 4.03 3.18 5.3 1.16 1.26 3.91 2.74 6.11 3.3 2.77 0.69 4.93 0.67 7-0.08 1.65-0.6 3.9-1.86 5-2.8 1.1-0.95 2.79-2.96 3.75-4.47 0.96-1.51 1.76-3.76 1.77-5 0.02-1.24-0.66-3.94-1.5-6-1.12-2.77-2.63-4.26-5.77-5.73-2.34-1.09-5.6-1.96-7.25-1.93-1.65 0.02-3.99 0.42-5.21 0.89-1.21 0.47-3.15 2.13-4.3 3.69zm-394.99-42.67l-0.62 6.25c-0.34 3.44-1.51 8.5-2.6 11.25-1.08 2.75-3.46 7.25-5.27 10-1.81 2.75-5.03 6.54-7.15 8.43-2.12 1.88-5.88 4.3-8.36 5.38-2.47 1.07-7.99 2.23-20.01 3.19l0.03-2.5c0.02-1.37 1.46-4.98 3.18-8 1.73-3.02 6.5-8.76 10.6-12.75 4.1-3.99 7.06-7.26 6.58-7.28-0.48-0.02-3.12 1.22-5.86 2.75-2.74 1.53-7.13 4.92-9.75 7.53-2.62 2.61-6.46 7.68-8.52 11.26-2.06 3.58-4.2 6.51-4.75 6.51-0.62 0-0.78-2.36-0.41-6.26 0.33-3.54 1.75-8.76 3.25-12.01 1.46-3.16 4.8-8.04 7.41-10.83 2.75-2.95 7.28-6.32 10.75-8.01 3.3-1.62 8.03-3.33 10.5-3.81 2.48-0.49 8.21-0.93 21-1.1zm-94.14 2.98c0.9-0.01 2.54 0.63 3.64 1.42 1.95 1.4 2.01 2.73 2.5 96.6h-11l0.25-47.35c0.2-38.2 0.51-47.66 1.61-49 0.75-0.91 2.1-1.66 3-1.67zm87.14 43.97c0.28-0.02 1.18 0.73 2 1.66 1.25 1.42 1.5 5.82 1.5 25.96 0 13.35-0.22 24.52-0.5 24.83-0.27 0.31-2.87 0.91-11.03 2.1l-0.24-49.43 3.89-2.54c2.13-1.4 4.11-2.56 4.38-2.58zm-43.2 9.03c0.93-0.01 2.6 0.63 3.7 1.42 1.89 1.36 2 2.58 2 43.1l-10.5 0.5-0.1-20.28c-0.08-17.36 0.14-20.59 1.55-22.5 0.91-1.22 2.41-2.23 3.35-2.24zm406.15 8.02c2.99 0 4.71 0.66 6.55 2.5 1.38 1.38 2.77 3.74 3.1 5.25 0.33 1.51-0.01 4.05-0.75 5.64-0.74 1.58-2.59 3.5-4.1 4.25-1.51 0.75-3.65 1.36-4.75 1.36-1.1 0-2.9-0.45-4-1-1.1-0.55-2.67-2.35-3.5-4-0.82-1.65-1.48-4.37-1.45-6.05 0.02-1.82 1.01-4.02 2.45-5.5 1.77-1.8 3.48-2.45 6.45-2.45z"/>
	</g>
</svg>